<?xml version="1.0" encoding="utf-8"?>
<!-- Generator: Adobe Illustrator 16.0.0, SVG Export Plug-In . SVG Version: 6.00 Build 0)  -->
<!DOCTYPE svg PUBLIC "-//W3C//DTD SVG 1.1//EN" "http://www.w3.org/Graphics/SVG/1.1/DTD/svg11.dtd">
<svg version="1.1" id="Layer_1" xmlns="http://www.w3.org/2000/svg" xmlns:xlink="http://www.w3.org/1999/xlink" x="0px" y="0px"
	 width="13px" height="13px" viewBox="-0.5 -1.1 13 13" enable-background="new -0.5 -1.1 13 13" xml:space="preserve">
<circle cx="6" cy="5.4" r="6"/>
<title>logo_leovegas</title>
<path fill="#FFFFFF" d="M6.271-0.089c-0.09,0-0.188-0.007-0.277-0.007c-3.041,0.007-5.497,2.47-5.49,5.503
	c0.007,3.035,2.47,5.498,5.503,5.491s5.496-2.47,5.489-5.504C11.489,2.471,9.193,0.064,6.271-0.089z M9.61,1.977L8.929,2.666
	c0-0.014,0.008-0.028,0.008-0.042c0-0.25-0.146-0.396-0.342-0.57L8.574,2.04l0.577-0.487C9.312,1.678,9.465,1.824,9.61,1.977
	L9.61,1.977z M3.83,0.906l0.703,0.912L4.407,0.669C4.609,0.6,4.811,0.544,5.019,0.509L5.5,1.88l0.139-1.454
	c0.119-0.007,0.236-0.014,0.355-0.014c0.097,0,0.187,0,0.277,0.007l0.133,1.406l0.48-1.329c0.208,0.035,0.41,0.09,0.611,0.153
	L7.37,1.852l0.717-0.981c0.188,0.09,0.376,0.188,0.55,0.299L8.288,1.845c-0.194-0.091-0.396-0.139-0.486,0
	C7.663,2.061,7.53,2.221,7.481,2.214c-0.152-0.021-0.424-0.167-0.73-0.167c-0.598,0-0.765,0.41-0.765,0.41
	c-0.209-0.25-0.507-0.396-0.834-0.403c-0.529,0-0.703,0.167-0.703,0.167S4.316,1.894,4.212,1.79
	C4.136,1.713,3.885,1.762,3.635,1.894L3.273,1.212C3.454,1.101,3.642,0.996,3.83,0.906z M7.294,3.167
	C7.036,3.229,6.793,3.341,6.577,3.494c0,0-0.076,0.028-0.084-0.007C6.459,3.431,6.459,3.362,6.479,3.306
	c0.042-0.083,0.133-0.09,0.236-0.181C6.953,2.91,6.987,2.902,7.28,2.882c0.139-0.014,0.277-0.007,0.417,0.021
	C7.788,2.93,7.886,3.104,7.927,3.174c0.062,0.132,0.098,0.278,0.091,0.432C8.011,3.661,7.997,3.668,7.976,3.668
	S7.954,3.64,7.954,3.64S7.823,3.056,7.294,3.167z M7.886,3.87c-0.049,0.035-0.154,0-0.154,0C7.669,3.96,7.601,4.043,7.517,4.127
	C7.461,4.162,6.862,4.301,6.862,4.301S6.8,4.413,6.737,4.384C6.64,4.357,6.744,3.87,6.786,3.745C6.827,3.619,7.161,3.55,7.363,3.542
	c0.202-0.007,0.411,0.139,0.536,0.237C7.927,3.793,7.927,3.828,7.886,3.87z M5.214,3.689C5.047,3.661,4.97,3.48,4.79,3.292
	c-0.271-0.271-0.57-0.048-0.745,0c-0.118,0.035-0.16-0.125-0.16-0.125C3.913,3.083,3.955,3,4.01,2.93
	c0.056-0.069,0.139-0.118,0.223-0.146c0.118-0.007,0.244-0.007,0.362,0c0.077,0.007,0.153,0.035,0.223,0.07
	c0.083,0.056,0.32,0.452,0.508,0.521C5.708,3.529,5.5,3.73,5.214,3.689z M5.207,4.447C5.145,4.475,5.13,4.398,5.082,4.364
	C5.068,4.35,4.999,4.371,4.936,4.343c-0.062-0.028-0.069-0.118-0.16-0.174c-0.119-0.077-0.25-0.119-0.39-0.111
	C4.337,4.03,4.295,3.995,4.254,3.96c0,0-0.098,0.035-0.146,0C4.059,3.925,4.066,3.891,4.094,3.87
	c0.118-0.09,0.313-0.229,0.508-0.223s0.508,0.07,0.55,0.195c0.042,0.146,0.062,0.299,0.069,0.452
	C5.235,4.364,5.27,4.419,5.207,4.447z M2.779,1.581l0.578,0.536c-0.167,0.16-0.313,0.348-0.362,0.508L2.327,2.012
	C2.466,1.859,2.619,1.72,2.779,1.581z M10.354,2.972L8.776,3.96l1.85-0.424c0.077,0.195,0.146,0.396,0.202,0.599L8.414,4.927
	l2.532-0.167c0.028,0.208,0.042,0.417,0.042,0.626L8.456,5.553l2.49,0.459c-0.027,0.208-0.062,0.41-0.111,0.611l-2.49-0.466
	l2.296,1.071c-0.077,0.195-0.167,0.384-0.265,0.565l-2.303-1.06l1.955,1.602C9.903,8.504,9.771,8.664,9.632,8.816l-1.795-1.44
	l1.342,1.865C9.02,9.373,8.845,9.499,8.671,9.61L7.35,7.892l0.765,2.024c-0.188,0.091-0.383,0.168-0.584,0.23L6.835,8.769
	l0.098,1.53c-0.209,0.042-0.418,0.07-0.634,0.076L5.994,9.506l-0.307,0.869c-0.208-0.014-0.424-0.041-0.633-0.076l0.048-1.447
	l-0.654,1.295c-0.202-0.062-0.396-0.14-0.584-0.23L4.511,8.08L3.329,9.617C3.154,9.506,2.98,9.381,2.821,9.248l1.461-2.025
	L2.368,8.824C2.222,8.671,2.09,8.511,1.965,8.344l1.913-1.601L1.624,7.814C1.52,7.635,1.436,7.445,1.359,7.251l2.254-1.072
	l-2.456,0.48c-0.049-0.201-0.09-0.41-0.118-0.612l2.449-0.472L0.998,5.421c0-0.007,0-0.015,0-0.015c0-0.201,0.014-0.403,0.042-0.605
	l2.345,0.125L1.151,4.19c0.048-0.202,0.118-0.404,0.195-0.599l1.836,0.424L1.596,3.035C1.693,2.854,1.805,2.673,1.93,2.499
	l1.628,0.745c-0.056,0.174-0.083,0.362-0.07,0.542C3.502,4.225,3.447,4.51,3.635,4.69c0.188,0.181,0.431,0.341,0.57,0.522
	C4.24,5.254,4.261,5.289,4.282,5.317C4.31,5.345,4.337,5.379,4.358,5.415C4.372,5.442,4.386,5.463,4.4,5.491
	c0.098-0.174,0.306-0.264,0.348-0.229c0.042,0.035-0.125,0.16-0.271,0.542c-0.035,0.092-0.049,0.223-0.09,0.334
	c-0.056,0.166-0.119,0.32-0.091,0.543c0.056,0.334,0.188,0.646,0.383,0.926C4.776,7.725,4.978,7.662,5.145,7.62
	s0.424-0.23,0.542-0.349S5.805,7.16,5.812,7.146C5.82,7.132,5.958,6.882,5.923,6.792c-0.09-0.16-0.215-0.307-0.361-0.411
	c-0.125-0.069-0.341-0.208-0.39-0.306C5.151,6.033,5.096,5.97,5.061,5.908C5.026,5.846,4.984,5.825,5.019,5.79
	c0.035-0.034,0.056-0.014,0.098,0.028c0.042,0.042,0.062,0.09,0.09,0.083C5.235,5.895,5.2,5.887,5.214,5.852
	c0.014-0.049,0.056-0.09,0.104-0.111c0.146-0.068,0.404,0.098,0.675,0.098c0.271,0,0.625-0.25,0.73-0.152
	C6.759,5.72,6.786,5.762,6.807,5.803c0.015,0.035-0.014,0.028,0.007,0.043c0.021,0.014,0.07-0.043,0.125-0.091
	C6.98,5.72,6.987,5.713,7.022,5.727s0.007,0.057-0.007,0.119c-0.007,0.049-0.028,0.09-0.062,0.118
	C6.869,6.033,6.702,6.04,6.466,6.249S6.069,6.694,6.062,6.784C6.056,6.875,6.139,7.091,6.236,7.209
	c0.097,0.118,0.229,0.021,0.528,0.174c0.133,0.069,0.529,0,0.641-0.098c0.152-0.14,0.25-0.319,0.285-0.521
	c0.056-0.243,0.007-0.619-0.035-0.759C7.62,5.901,7.586,5.797,7.537,5.692C7.481,5.567,7.392,5.477,7.426,5.456
	c0.035-0.021,0.091-0.021,0.16,0.084C7.593,5.553,7.614,5.595,7.62,5.602c-0.006-0.049-0.006-0.098,0-0.146
	c0.021-0.083,0.043-0.16,0.07-0.243c0.035-0.174,0.133-0.271,0.299-0.375c0.202-0.125,0.516-0.306,0.55-0.508
	c0.035-0.202,0.049-0.605,0.015-0.737C8.532,3.508,8.497,3.369,8.47,3.271l1.551-0.828C10.132,2.624,10.251,2.798,10.354,2.972
	L10.354,2.972z"/>
<path fill="#FFFFFF" d="M6.523,7.574C6.426,7.525,6.218,7.422,6.009,7.422c-0.509,0-0.481,0.215-0.697,0.285
	C5.11,7.776,4.916,7.797,4.839,7.859S4.77,7.943,4.825,8.076c0.111,0.215,0.25,0.41,0.417,0.584
	c0.153,0.132,0.285,0.118,0.375,0.258c0.091,0.139,0.383,0.508,0.383,0.508s0.217-0.391,0.348-0.522
	c0.133-0.132,0.543-0.341,0.641-0.599c0.098-0.257,0.32-0.535,0.188-0.64C7.045,7.561,6.726,7.672,6.523,7.574z"/>
</svg>
