<?xml version="1.0" standalone="no"?>
<!DOCTYPE svg PUBLIC "-//W3C//DTD SVG 20010904//EN"
 "http://www.w3.org/TR/2001/REC-SVG-20010904/DTD/svg10.dtd">
<svg version="1.0" xmlns="http://www.w3.org/2000/svg"
 width="700.000000pt" height="700.000000pt" viewBox="0 0 700.000000 700.000000"
 preserveAspectRatio="xMidYMid meet">
<metadata>
Created by potrace 1.14, written by Peter Selinger 2001-2017
</metadata>
<g transform="translate(0.000000,700.000000) scale(0.100000,-0.100000)"
fill="#000000" stroke="none">
<path d="M3269 6726 c-2 -2 -42 -7 -89 -11 -47 -4 -87 -9 -90 -10 -3 -2 -30
-6 -60 -9 -92 -10 -309 -56 -391 -82 -25 -8 -54 -16 -65 -18 -85 -18 -346
-121 -507 -201 -498 -249 -918 -612 -1229 -1065 -135 -197 -207 -329 -324
-595 -86 -195 -186 -562 -210 -765 -3 -30 -8 -58 -10 -61 -2 -3 -7 -50 -11
-105 -15 -188 -8 -637 12 -714 2 -8 6 -37 10 -65 8 -68 11 -85 35 -195 12 -52
23 -106 26 -120 6 -28 9 -39 60 -200 98 -308 246 -605 437 -875 39 -55 73
-102 77 -105 3 -3 21 -25 40 -50 107 -138 328 -364 456 -465 21 -16 42 -35 48
-40 29 -28 233 -170 331 -231 285 -175 692 -342 955 -390 14 -3 41 -9 60 -14
19 -5 52 -12 74 -16 21 -3 48 -8 60 -10 11 -2 41 -7 66 -10 25 -3 52 -7 60 -9
100 -26 680 -27 816 -1 12 2 45 7 75 11 30 3 61 8 69 10 8 2 31 7 50 10 154
26 422 104 605 177 138 55 333 153 475 239 108 66 144 90 280 191 72 53 239
199 315 275 354 353 621 779 782 1248 19 55 36 107 38 115 2 8 17 67 34 130
34 128 33 127 61 295 28 174 35 264 35 510 0 191 -10 388 -20 405 -2 3 -6 30
-9 60 -3 30 -8 66 -11 80 -25 130 -46 223 -71 310 -249 900 -876 1649 -1719
2054 -298 143 -637 245 -945 285 -47 6 -103 13 -125 17 -44 6 -550 15 -556 10z"/>
</g>
</svg>
